# xmcd
#
# Track frame offsets:
#	150
#	27910
#	56535
#	84688
#	106938
#	132175
#	158183
#	183720
#	211523
#	235703
#	260313
#	291260
#
# Disc length: 4188 seconds
#
# Revision: 4292149254
# Processed by: cddbd v1.5.2PL0 Copyright (c) Steve Scherf et al.
# Submitted via: EZCDAudioConverter 8.0.2.1
#
DISCID=9f105a0c
DTITLE=Various Artist - Ai Về Sông Tương
DYEAR=1991
DGENRE=Contemporary Pop
TTITLE0=Khánh Hà - Nha Trang  ngày về
TTITLE1=Elvis Phương, Khánh Ly - Niệm khúc cuối
TTITLE2=Tuấn Ngọc - Nỗi lòng
TTITLE3=Lý Hải - Ru con tình cũ
TTITLE4=Ngọc Minh - Ai nói với em
TTITLE5=Elvis Phương - Nhìn nhau lần cuối
TTITLE6=Khánh Ly - Rồi mai tôi đưa em
TTITLE7=Lê Uyên, Phương - Khi xa Sài Gòn
TTITLE8=Lệ Thu - Mùa thu trong mưa
TTITLE9=Carol Kim - Điệu ru nước mắt
TTITLE10=Elvis Phương - Ai Về Sông Tương
TTITLE11=Elvis Phương, Khánh Ly - Khi người yêu tôi khóc
EXTD=
EXTT0=
EXTT1=
EXTT2=
EXTT3=
EXTT4=
EXTT5=
EXTT6=
EXTT7=
EXTT8=
EXTT9=
EXTT10=
EXTT11=
PLAYORDER=
